<?xml version="1.0" encoding="iso-8859-1"?>
<!-- Generator: Adobe Illustrator 18.1.1, SVG Export Plug-In . SVG Version: 6.00 Build 0)  -->
<svg version="1.1" id="Capa_1" xmlns="http://www.w3.org/2000/svg" xmlns:xlink="http://www.w3.org/1999/xlink" x="0px" y="0px"
	 viewBox="0 0 213.74 213.74" style="enable-background:new 0 0 213.74 213.74;" xml:space="preserve">
<g>
	<path style="fill:#010002;" d="M6.706,56.867c9.127,9.143,27.097,26.989,38.971,38.759c6.402,6.347,6.429,16.649,0.054,23.024
		L6.124,158.267c0,0-13.179,14.653-0.147,27.658l20.641,20.641c0,0,14.957,15.229,28.86,1.311l39.096-38.585
		c6.418-6.331,16.834-6.347,23.263-0.038l38.889,38.144c0,0,14.805,13.94,28.702,0l21.56-20.56c0,0,13.902-15.724,1.327-28.272
		l-39.15-39.161c-6.375-6.375-6.424-16.758-0.114-23.187l37.421-38.139c0,0,14.816-14.811,0.457-29.164
		c0,0-4.879-5.238-10.905-11.699c-6.021-6.462-16.48-17.351-25.041-17.215c-4.194,0.065-8.942,1.681-13.679,6.429l-38.079,39.058
		c-6.293,6.451-16.546,6.5-22.898,0.114L68.466,17.569C62.113,11.179,51.034,1.154,42.321,0.464c-4.71-0.37-9.866,0.745-14.37,5.254
		C15.843,17.831,6.091,28.464,6.091,28.464S-7.653,42.513,6.706,56.867z"/>
</g>
<g>
</g>
<g>
</g>
<g>
</g>
<g>
</g>
<g>
</g>
<g>
</g>
<g>
</g>
<g>
</g>
<g>
</g>
<g>
</g>
<g>
</g>
<g>
</g>
<g>
</g>
<g>
</g>
<g>
</g>
</svg>
